<?xml version="1.0" encoding="iso-8859-1"?>
<!-- Generator: Adobe Illustrator 19.0.0, SVG Export Plug-In . SVG Version: 6.00 Build 0)  -->
<svg version="1.1" id="Layer_1" xmlns="http://www.w3.org/2000/svg" xmlns:xlink="http://www.w3.org/1999/xlink" x="0px" y="0px"
	 viewBox="0 0 512.002 512.002" style="enable-background:new 0 0 512.002 512.002;" xml:space="preserve">
<g>
	<g>
		<path d="M385.014,209.577c21.838-28.522,33.383-62.63,33.383-98.64V71.635h20.683c6.38,0,11.553-5.173,11.553-11.553V11.553
			C450.633,5.173,445.46,0,439.081,0H72.922c-6.381,0-11.553,5.173-11.553,11.553v48.529c0,6.38,5.172,11.553,11.553,11.553h20.684
			v39.304c0,36.009,11.544,70.118,33.382,98.64c14.925,19.492,34.248,35.408,56.026,46.423
			c-21.778,11.013-41.102,26.931-56.026,46.423c-21.838,28.522-33.382,62.632-33.382,98.641v39.303H72.922
			c-6.381,0-11.553,5.173-11.553,11.553v48.529c0,6.379,5.172,11.553,11.553,11.553h366.158c6.379,0,11.553-5.173,11.553-11.553
			V451.92c0-6.38-5.173-11.553-11.553-11.553h-20.683v-39.303c0-36.009-11.544-70.119-33.382-98.641
			c-14.925-19.492-34.25-35.408-56.027-46.423C350.766,244.987,370.09,229.069,385.014,209.577z M84.475,48.529V23.106h343.052
			v25.423h-20.683H105.159H84.475z M116.711,401.062h0.001c0-61.898,41.521-116.982,100.971-133.953
			c1.141-0.326,2.197-0.824,3.153-1.45v24.859c-21.589,6.891-40.99,20.144-55.338,37.952c-16.56,20.555-25.681,46.403-25.681,72.785
			v39.11h-23.106V401.062z M234.996,201.409c-28.247-6.544-51.467-25.695-63.422-51.463h168.854
			c-11.955,25.769-35.175,44.92-63.423,51.463c-5.237,1.214-8.945,5.879-8.945,11.255v86.649c0,5.377,3.71,10.042,8.947,11.255
			c41.761,9.669,72.073,47.809,72.073,90.688v39.11H162.922v-39.11c0-42.878,30.31-81.019,72.073-90.688
			c5.238-1.213,8.947-5.878,8.947-11.255v-86.649C243.941,207.288,240.233,202.623,234.996,201.409z M427.528,463.471v25.423H84.475
			v-25.423h20.684h46.211h209.263h46.211H427.528z M395.291,401.062v39.303h-23.106v-39.11c0-26.382-9.121-52.231-25.681-72.785
			c-14.349-17.809-33.749-31.061-55.337-37.952v-24.859c0.955,0.626,2.01,1.124,3.153,1.45
			C353.77,284.08,395.291,339.164,395.291,401.062z M294.319,244.891c-1.141,0.326-2.196,0.824-3.153,1.45v-24.87
			c37.367-11.846,66.407-41.797,76.892-80.021c0.953-3.476,0.23-7.196-1.955-10.063c-2.186-2.864-5.582-4.547-9.186-4.547H155.085
			c-3.603,0-7.001,1.682-9.187,4.547c-2.186,2.865-2.908,6.587-1.955,10.063c10.485,38.224,39.526,68.175,76.892,80.021v24.87
			c-0.955-0.626-2.011-1.124-3.153-1.45c-59.45-16.971-100.971-72.055-100.971-133.952v-2.959h207.025
			c6.379,0,11.553-5.173,11.553-11.553c0-6.38-5.173-11.553-11.553-11.553H116.712v-13.24h278.579v39.304
			C395.291,172.836,353.77,227.918,294.319,244.891z"/>
	</g>
</g>
<g>
	<g>
		<path d="M373.181,94.173c-0.139-0.741-0.37-1.47-0.659-2.162c-0.289-0.705-0.647-1.375-1.063-1.997
			c-0.415-0.637-0.9-1.226-1.431-1.757c-0.531-0.531-1.122-1.017-1.757-1.433c-0.624-0.415-1.294-0.774-1.987-1.063
			c-0.705-0.289-1.432-0.507-2.16-0.657c-1.502-0.302-3.027-0.302-4.517,0c-0.739,0.15-1.467,0.369-2.16,0.657
			c-0.704,0.289-1.374,0.648-1.997,1.063c-0.635,0.416-1.226,0.901-1.757,1.433s-1.017,1.121-1.433,1.757
			c-0.415,0.623-0.774,1.293-1.063,1.997c-0.289,0.693-0.519,1.421-0.657,2.16c-0.15,0.739-0.231,1.502-0.231,2.253
			c0,0.75,0.081,1.513,0.231,2.264c0.139,0.728,0.369,1.456,0.657,2.16c0.289,0.693,0.648,1.363,1.063,1.987
			c0.416,0.635,0.901,1.225,1.433,1.756c2.149,2.149,5.129,3.386,8.168,3.386c0.751,0,1.513-0.081,2.264-0.231
			c0.728-0.139,1.456-0.37,2.16-0.659c0.693-0.289,1.363-0.635,1.987-1.051c0.635-0.426,1.226-0.913,1.757-1.444
			s1.017-1.121,1.431-1.756c0.416-0.624,0.774-1.294,1.063-1.987c0.289-0.705,0.52-1.433,0.659-2.16
			c0.15-0.751,0.231-1.515,0.231-2.264C373.412,95.675,373.331,94.911,373.181,94.173z"/>
	</g>
</g>
<g>
</g>
<g>
</g>
<g>
</g>
<g>
</g>
<g>
</g>
<g>
</g>
<g>
</g>
<g>
</g>
<g>
</g>
<g>
</g>
<g>
</g>
<g>
</g>
<g>
</g>
<g>
</g>
<g>
</g>
</svg>
